<svg id="Layer_1" data-name="Layer 1" xmlns="http://www.w3.org/2000/svg" viewBox="0 0 881.27 679.91">
  <defs>
    <style>
      .cls-1 {
        fill: #ca1d00;
      }

      .cls-2 {
        fill: #fbf002;
      }
    </style>
  </defs>
  <title>km_logo</title>
  <line class="cls-1" x1="4.09" y1="679.01" x2="439.95" y2="1.11"/>
  <g id="FQhOcg.tif">
    <g>
      <path class="cls-2" d="M89.18,790.91l396.3-611.45L881.72,790.91H89.18Z" transform="translate(-40.48 -140.08)"/>
      <path class="cls-1" d="M481.15,140.08L921.75,820H40.48" transform="translate(-40.48 -140.08)"/>
      <path class="cls-2" d="M482.39,177.54L878.63,789H86.09" transform="translate(-40.48 -140.08)"/>
    </g>
  </g>
  <path class="cls-1" d="M483.58,224.16c1.42,2.43,351.83,544.07,351.94,543.09-0.11-.06-700.93,1-703.94,0" transform="translate(-40.48 -140.08)"/>
  <path class="cls-2" d="M655.51,630.2c-25.48,55-79.39,79.07-142.1,62.74-33.3-8.67-65.52-21.08-100.17-24.93-46-5.1-90.81-4.48-133.41,16.39-1.8.88-4,.83-8.67,1.7,23-43.63,57.92-64.88,103.85-69.35,10.33-1,21.11-1.79,31.19,0,16.59,3,24.15-2.34,28.46-19,7.13-27.51,16.6-54.44,25.92-81.33,3.5-10.11.81-13.61-9.18-15.48-29.61-5.54-58.62-2.52-88.24,6.1,21.83-47.95,77.44-69.8,123.68-47.37,38.5,18.67,74.34,20.46,109.49-7.14,1.4,39.43-33.17,71.32-73,66.1-15.6-2-21,2.83-24.94,16.63-7.63,26.87-16.49,53.41-25.55,79.85-3.24,9.45-2,14,8.12,17.9,53.85,21,107.35,17.72,161-.28C646,631.44,649.59,628.08,655.51,630.2Z" transform="translate(-40.48 -140.08)"/>
</svg>
